<?xml version="1.0" standalone="no"?>
<!DOCTYPE svg PUBLIC "-//W3C//DTD SVG 20010904//EN"
 "http://www.w3.org/TR/2001/REC-SVG-20010904/DTD/svg10.dtd">
<svg version="1.0" xmlns="http://www.w3.org/2000/svg"
 width="119.000000pt" height="94.000000pt" viewBox="0 0 119.000000 94.000000"
 preserveAspectRatio="xMidYMid meet">

<g transform="translate(0.000000,94.000000) scale(0.100000,-0.100000)"
fill="#000000" stroke="none">
<path d="M0 470 l0 -470 595 0 595 0 0 470 0 470 -595 0 -595 0 0 -470z m487
203 c-4 -32 -9 -92 -12 -133 l-5 -75 48 130 49 130 87 3 c80 3 87 1 82 -15 -6
-18 -116 -494 -116 -500 0 -2 -22 -3 -50 -3 -33 0 -50 4 -50 13 0 6 13 68 29
137 16 69 28 126 27 128 -2 1 -27 -61 -57 -138 l-54 -140 -53 0 -53 0 5 58 c3
31 7 98 10 147 l5 90 -36 -147 -37 -148 -48 0 c-32 0 -48 4 -48 13 0 6 26 123
57 260 l57 247 84 0 85 0 -6 -57z m553 -263 l0 -40 -160 0 -160 0 0 40 0 40
160 0 160 0 0 -40z m-40 -165 l0 -45 -160 0 -160 0 0 45 0 45 160 0 160 0 0
-45z"/>
</g>
</svg>
