<svg id="SvgjsSvg1001" width="288" height="288" xmlns="http://www.w3.org/2000/svg" version="1.1" xmlns:xlink="http://www.w3.org/1999/xlink" xmlns:svgjs="http://svgjs.com/svgjs"><defs id="SvgjsDefs1002"></defs><g id="SvgjsG1008"><svg xmlns="http://www.w3.org/2000/svg" viewBox="0 0 32 32" width="288" height="288"><path d="M 15.371094 0.109375 C 10.640625 0.269531 6.179688 2.605469 3.289062 6.433594 C 0.359375 10.316406 -0.628906 15.316406 0.605469 20.035156 C 1.921875 25.066406 5.683594 29.183594 10.589844 30.960938 C 13.605469 32.050781 16.890625 32.203125 20.011719 31.394531 C 20.554688 31.253906 21.554688 30.917969 22.070312 30.703125 C 25.53125 29.265625 28.417969 26.609375 30.136719 23.285156 C 30.890625 21.824219 31.414062 20.257812 31.683594 18.636719 C 31.839844 17.710938 31.898438 17.011719 31.898438 15.988281 C 31.894531 15.03125 31.851562 14.449219 31.722656 13.585938 C 30.851562 7.898438 26.949219 3.109375 21.546875 1.089844 C 19.589844 0.355469 17.546875 0.03125 15.371094 0.109375 Z M 17.234375 3.292969 C 19.769531 3.535156 22.167969 4.539062 24.171875 6.199219 C 24.570312 6.535156 25.292969 7.242188 25.628906 7.632812 C 27.355469 9.640625 28.378906 11.972656 28.683594 14.582031 C 28.738281 15.0625 28.765625 15.886719 28.742188 16.515625 C 28.574219 21.371094 25.554688 25.769531 21.046875 27.722656 C 18.183594 28.960938 14.941406 29.105469 11.988281 28.117188 C 7.636719 26.667969 4.363281 22.96875 3.476562 18.492188 C 3.148438 16.828125 3.148438 15.132812 3.488281 13.457031 C 3.980469 11.019531 5.1875 8.773438 6.964844 6.988281 C 8.980469 4.96875 11.578125 3.691406 14.414062 3.332031 C 15.277344 3.222656 16.332031 3.207031 17.234375 3.292969 Z M 17.234375 3.292969 " fill="#ffffff" class="color000 svgShape"></path><path d="M22.089844 14.082031C21.675781 14.183594 21.269531 14.445312 21.019531 14.773438 20.738281 15.148438 20.609375 15.519531 20.609375 15.988281 20.605469 16.34375 20.65625 16.558594 20.816406 16.890625 20.921875 17.101562 20.972656 17.171875 21.191406 17.390625 21.464844 17.664062 21.65625 17.785156 21.992188 17.886719 22.402344 18.011719 22.789062 18.007812 23.207031 17.871094 24.46875 17.464844 24.960938 15.894531 24.164062 14.8125 23.917969 14.476562 23.421875 14.15625 23.015625 14.070312 22.765625 14.019531 22.328125 14.023438 22.089844 14.082031zM9 14.085938C8.148438 14.261719 7.558594 14.910156 7.449219 15.773438 7.402344 16.164062 7.492188 16.617188 7.699219 16.988281 7.824219 17.210938 8.1875 17.578125 8.417969 17.710938 8.769531 17.917969 9.234375 18.015625 9.625 17.964844 10.097656 17.90625 10.480469 17.71875 10.808594 17.394531 11.355469 16.84375 11.53125 16.082031 11.28125 15.347656 11.175781 15.046875 11.0625 14.863281 10.820312 14.621094 10.585938 14.382812 10.382812 14.257812 10.058594 14.148438 9.878906 14.085938 9.800781 14.078125 9.480469 14.070312 9.28125 14.0625 9.0625 14.070312 9 14.085938zM15.484375 14.109375C15.097656 14.203125 14.691406 14.457031 14.464844 14.734375 14.304688 14.9375 14.152344 15.238281 14.078125 15.492188 14.035156 15.652344 14.023438 15.765625 14.023438 16 14.023438 16.363281 14.066406 16.546875 14.234375 16.890625 14.339844 17.105469 14.390625 17.171875 14.605469 17.390625 14.957031 17.742188 15.296875 17.90625 15.789062 17.96875 16.160156 18.015625 16.65625 17.910156 16.996094 17.710938 17.257812 17.5625 17.59375 17.210938 17.722656 16.957031 17.921875 16.574219 17.953125 16.433594 17.953125 15.988281 17.953125 15.613281 17.949219 15.582031 17.871094 15.367188 17.640625 14.726562 17.152344 14.269531 16.515625 14.113281 16.242188 14.042969 15.757812 14.042969 15.484375 14.109375zM15.484375 14.109375" fill="#ffffff" class="color000 svgShape"></path></svg></g></svg>